<svg class="svg-icon" style="width: 1em;height: 1em;vertical-align: middle;fill: currentColor;overflow: hidden;" viewBox="0 0 1024 1024" version="1.1" xmlns="http://www.w3.org/2000/svg"><path d="M163.84 498.346667l-30.72-20.48 136.533333-211.626667c13.653333-20.48 37.546667-34.133333 64.853334-34.133333 27.306667 0 54.613333 17.066667 68.266666 40.96l34.133334 68.266666-30.72 13.653334-34.133334-68.266667c-13.653333-27.306667-54.613333-30.72-71.68-3.413333l-136.533333 215.04zM713.386667 778.24c-105.813333 0-143.36-54.613333-157.013334-88.746667-17.066667-37.546667-13.653333-85.333333 3.413334-122.88-37.546667 10.24-58.026667 10.24-95.573334 0 17.066667 37.546667 17.066667 85.333333 3.413334 122.88-13.653333 34.133333-51.2 88.746667-157.013334 88.746667-133.12 0-170.666667-75.093333-170.666666-119.466667v-20.48c0-20.48 3.413333-47.786667-6.826667-58.026666-3.413333-3.413333-3.413333-3.413333-13.653333-6.826667L34.133333 570.026667l75.093334-27.306667c3.413333 0 92.16-34.133333 194.56-34.133333 64.853333 0 116.053333 13.653333 153.6 23.893333 20.48 6.826667 40.96 10.24 51.2 10.24s30.72-3.413333 51.2-10.24c37.546667-10.24 88.746667-23.893333 153.6-23.893333 102.4 0 191.146667 34.133333 194.56 34.133333l75.093333 27.306667-78.506667 3.413333c-6.826667 0-10.24 3.413333-13.653333 6.826667-10.24 10.24-6.826667 40.96-6.826667 58.026666v20.48c0 44.373333-37.546667 119.466667-170.666666 119.466667z m-109.226667-225.28c-23.893333 23.893333-37.546667 78.506667-17.066667 122.88 13.653333 30.72 44.373333 68.266667 126.293334 68.266667 133.12 0 136.533333-75.093333 136.533333-85.333334v-17.066666c-3.413333-27.306667-3.413333-58.026667 10.24-78.506667-34.133333-10.24-88.746667-20.48-146.773333-20.48-44.373333-3.413333-78.506667 3.413333-109.226667 10.24z m-447.146667 6.826667c13.653333 23.893333 13.653333 54.613333 10.24 81.92v17.066666c0 10.24 3.413333 85.333333 136.533334 85.333334 81.92 0 112.64-37.546667 126.293333-68.266667 17.066667-44.373333 3.413333-98.986667-17.066667-122.88-30.72-6.826667-68.266667-13.653333-109.226666-13.653333-58.026667 0-112.64 10.24-146.773334 20.48z" fill="#2D3545" /><path d="M576.853333 641.706667h-34.133333c0-6.826667-10.24-17.066667-34.133333-17.066667s-34.133333 10.24-34.133334 17.066667h-34.133333c0-23.893333 20.48-51.2 68.266667-51.2s68.266667 23.893333 68.266666 51.2zM849.92 498.346667l-136.533333-211.626667c-6.826667-13.653333-20.48-20.48-34.133334-20.48-17.066667 0-30.72 10.24-37.546666 23.893333l-34.133334 68.266667-30.72-13.653333 34.133334-68.266667c13.653333-27.306667 37.546667-40.96 68.266666-40.96 27.306667 0 51.2 13.653333 64.853334 34.133333l136.533333 211.626667-30.72 17.066667z" fill="#2D3545" /></svg>